<svg xmlns="http://www.w3.org/2000/svg" xml:space="preserve" width="800" height="800" viewBox="0 0 493.728 493.728"><path d="M404.936 92.136c-1.768-.168-39.52-2.968-39.52-2.968S339.176 63 336.304 60.12c-2.88-2.896-8.504-2.032-10.696-1.368-.312.088-5.72 1.776-14.672 4.536-8.768-25.336-24.216-48.616-51.408-48.616-.752 0-1.528.032-2.312.08C249.488 4.488 239.904 0 231.624 0 168.272 0 138 79.608 128.512 120.064c-24.624 7.648-42.128 13.104-44.336 13.824-13.768 4.336-14.192 4.768-15.976 17.776-1.376 9.848-37.336 289.312-37.336 289.312l280.176 52.752 151.824-33.016S409.576 98.624 409.24 96.136c-.336-2.48-2.512-3.856-4.304-4zm-149.8-14.232c0 .952-.016 1.848-.016 2.752-15.424 4.808-32.16 10.008-48.968 15.248 9.432-36.56 27.096-54.24 42.56-60.904 3.88 9.808 6.424 23.904 6.424 42.904zm-25.264-60.816c2.768 0 5.504.928 8.144 2.76-20.312 9.592-42.064 33.792-51.264 82.088-13.432 4.176-26.552 8.272-38.704 12.048 10.768-36.856 36.32-96.896 81.824-96.896zm10.92 215.296s-16.4-8.792-36.488-8.792c-29.488 0-30.976 18.592-30.976 23.264 0 25.56 66.296 35.36 66.296 95.224 0 47.104-29.712 77.424-69.808 77.424-48.096 0-72.704-30.088-72.704-30.088l12.872-42.76s25.28 21.832 46.64 21.832c13.92 0 19.592-11.04 19.592-19.096 0-33.344-54.392-34.832-54.392-89.624 0-46.088 32.928-90.728 99.424-90.728 25.592 0 38.264 7.384 38.264 7.384l-18.72 55.96zm30.952-156.896c0-1.688.016-3.336.016-5.152 0-15.728-2.184-28.408-5.672-38.456 14.016 1.752 23.352 17.784 29.36 36.224-7.032 2.208-15.032 4.688-23.704 7.384z" style="fill:#95c675"/><path d="M404.936 92.136c-1.768-.168-39.52-2.968-39.52-2.968S339.176 63 336.304 60.12c-2.88-2.896-8.504-2.032-10.696-1.368-.312.088-5.72 1.776-14.672 4.536-8.768-25.336-24.216-48.616-51.408-48.616-.752 0-1.528.032-2.312.08C249.488 4.488 239.904 0 231.624 0c-63.352 0-78.984 79.608-88.472 120.064-24.624 7.648-43.52 49.752-45.752 50.456-13.752 4.336-14.176 4.768-15.968 17.784-1.384 9.84-50.568 252.672-50.568 252.672l280.176 52.752 151.824-33.016S409.576 98.624 409.24 96.136c-.336-2.48-2.512-3.856-4.304-4zm-149.8-14.232c0 .952-.016 1.848-.016 2.752-15.424 4.808-32.16 10.008-48.968 15.248 9.432-36.56 27.096-54.24 42.56-60.904 3.88 9.808 6.424 23.904 6.424 42.904zm-25.264-60.816c2.768 0 5.504.928 8.144 2.76-20.312 9.592-42.064 33.792-51.264 82.088-13.432 4.176-26.552 8.272-38.704 12.048 10.768-36.856 36.32-96.896 81.824-96.896zm10.92 215.296s-16.4-8.792-36.488-8.792c-29.488 0-30.976 18.592-30.976 23.264 0 25.56 66.296 35.36 66.296 95.224 0 47.104-29.712 77.424-69.808 77.424-48.096 0-72.704-30.088-72.704-30.088l12.872-42.76s25.28 21.832 46.64 21.832c13.92 0 19.592-11.04 19.592-19.096 0-33.344-54.392-34.832-54.392-89.624 0-46.088 32.928-90.728 99.424-90.728 25.592 0 38.264 7.384 38.264 7.384l-18.72 55.96zm30.952-156.896c0-1.688.016-3.336.016-5.152 0-15.728-2.184-28.408-5.672-38.456 14.016 1.752 23.352 17.784 29.36 36.224-7.032 2.208-15.032 4.688-23.704 7.384z" style="fill:#79b259"/><path d="m311.04 493.72 151.824-33.008S409.576 98.624 409.24 96.136c-.336-2.488-2.504-3.856-4.304-4-1.768-.168-39.52-2.968-39.52-2.968S339.176 63 336.304 60.12c-1.536-1.552-3.832-1.992-6-2.008-5.76 9.76-4.568 28.296-4.568 28.296L307.88 493.12l3.16.6z" style="fill:#55932c"/><path d="M259.528 14.68c-.752 0-1.528.032-2.312.08C249.488 4.496 239.904.008 231.624.008c-63.096 0-93.392 78.984-103 119.576l19.576-6.072c10.832-36.872 36.36-96.424 81.672-96.424 2.768 0 5.504.928 8.144 2.76-20.256 9.56-41.952 33.672-51.184 81.704l19.44-6C215.728 59.224 233.32 41.64 248.728 35c3.872 9.816 6.424 23.904 6.424 42.904 0 .864 0 1.688-.016 2.512l16.624-5.144c0-1.6.016-3.2.016-4.936 0-15.728-2.184-28.408-5.672-38.456 13.968 1.744 23.296 17.704 29.296 36.064l15.504-4.808c-8.792-25.264-24.232-48.456-51.376-48.456z" style="fill:#4a7a2b"/><path d="M371.752 89.648c-3.792-.296-6.344-.48-6.344-.48S339.168 63 336.296 60.12c-1.536-1.552-3.832-1.992-6-2.008-5.76 9.76-4.568 28.296-4.568 28.296L307.872 493.12l3.168.6 80.784-17.568-20.072-386.504z" style="fill:#4c822a"/></svg>